0, 0, Header, 1, 1, 128
1, 0, Start_track
1, 0, Title_t, "VSCO2 Piano"
1, 0, Tempo, 500000
1, 0, Note_on_c, 0, 88, 64
1, 128, Note_on_c, 0, 76, 64
1, 128, Note_on_c, 0, 71, 64
1, 128, Note_on_c, 0, 64, 64
1, 224, Note_off_c, 0, 71, 64
1, 224, Note_off_c, 0, 64, 64
1, 224, Note_off_c, 0, 76, 64
1, 224, Note_on_c, 0, 76, 64
1, 224, Note_on_c, 0, 64, 64
1, 224, Note_on_c, 0, 71, 64
1, 256, Note_off_c, 0, 76, 64
1, 256, Note_off_c, 0, 64, 64
1, 256, Note_off_c, 0, 71, 64
1, 256, Note_off_c, 0, 88, 64
1, 256, Note_on_c, 0, 64, 64
1, 256, Note_on_c, 0, 71, 64
1, 256, Note_on_c, 0, 76, 64
1, 320, Note_on_c, 0, 95, 64
1, 384, Note_off_c, 0, 64, 64
1, 384, Note_off_c, 0, 76, 64
1, 384, Note_off_c, 0, 71, 64
1, 384, Note_off_c, 0, 95, 64
1, 384, Note_on_c, 0, 93, 64
1, 384, Note_on_c, 0, 76, 64
1, 384, Note_on_c, 0, 71, 64
1, 384, Note_on_c, 0, 64, 64
1, 448, Note_off_c, 0, 76, 64
1, 448, Note_off_c, 0, 64, 64
1, 448, Note_off_c, 0, 71, 64
1, 448, Note_off_c, 0, 93, 64
1, 448, Note_on_c, 0, 91, 64
1, 512, Note_off_c, 0, 91, 64
1, 512, Note_on_c, 0, 90, 64
1, 640, Note_on_c, 0, 71, 64
1, 640, Note_on_c, 0, 66, 64
1, 640, Note_on_c, 0, 78, 64
1, 704, Note_off_c, 0, 90, 64
1, 704, Note_on_c, 0, 86, 64
1, 736, Note_off_c, 0, 78, 64
1, 736, Note_off_c, 0, 71, 64
1, 736, Note_off_c, 0, 66, 64
1, 736, Note_on_c, 0, 78, 64
1, 736, Note_on_c, 0, 71, 64
1, 736, Note_on_c, 0, 66, 64
1, 768, Note_off_c, 0, 86, 64
1, 768, Note_off_c, 0, 78, 64
1, 768, Note_off_c, 0, 71, 64
1, 768, Note_off_c, 0, 66, 64
1, 768, Note_on_c, 0, 66, 64
1, 768, Note_on_c, 0, 71, 64
1, 768, Note_on_c, 0, 78, 64
1, 768, Note_on_c, 0, 83, 64
1, 896, Note_off_c, 0, 78, 64
1, 896, Note_off_c, 0, 71, 64
1, 896, Note_off_c, 0, 66, 64
1, 896, Note_on_c, 0, 78, 64
1, 896, Note_on_c, 0, 71, 64
1, 896, Note_on_c, 0, 66, 64
1, 960, Note_off_c, 0, 78, 64
1, 960, Note_off_c, 0, 71, 64
1, 960, Note_off_c, 0, 66, 64
1, 960, Note_off_c, 0, 83, 64
1, 1024, Note_on_c, 0, 84, 64
1, 1056, Note_off_c, 0, 84, 64
1, 1056, Note_on_c, 0, 83, 64
1, 1088, Note_off_c, 0, 83, 64
1, 1088, Note_on_c, 0, 84, 64
1, 1120, Note_off_c, 0, 84, 64
1, 1120, Note_on_c, 0, 86, 64
1, 1152, Note_off_c, 0, 86, 64
1, 1152, Note_on_c, 0, 64, 64
1, 1152, Note_on_c, 0, 71, 64
1, 1152, Note_on_c, 0, 76, 64
1, 1152, Note_on_c, 0, 88, 64
1, 1248, Note_off_c, 0, 64, 64
1, 1248, Note_off_c, 0, 76, 64
1, 1248, Note_off_c, 0, 71, 64
1, 1248, Note_on_c, 0, 76, 64
1, 1248, Note_on_c, 0, 64, 64
1, 1248, Note_on_c, 0, 71, 64
1, 1280, Note_off_c, 0, 64, 64
1, 1280, Note_off_c, 0, 71, 64
1, 1280, Note_off_c, 0, 76, 64
1, 1280, Note_on_c, 0, 64, 64
1, 1280, Note_on_c, 0, 71, 64
1, 1280, Note_on_c, 0, 76, 64
1, 1408, Note_off_c, 0, 64, 64
1, 1408, Note_off_c, 0, 71, 64
1, 1408, Note_off_c, 0, 76, 64
1, 1408, Note_off_c, 0, 88, 64
1, 1408, Note_on_c, 0, 71, 64
1, 1408, Note_on_c, 0, 64, 64
1, 1408, Note_on_c, 0, 76, 64
1, 1408, Note_on_c, 0, 91, 64
1, 1472, Note_off_c, 0, 76, 64
1, 1472, Note_off_c, 0, 64, 64
1, 1472, Note_off_c, 0, 71, 64
1, 1536, Note_off_c, 0, 91, 64
1, 1536, Note_on_c, 0, 90, 64
1, 1664, Note_on_c, 0, 66, 64
1, 1664, Note_on_c, 0, 71, 64
1, 1664, Note_on_c, 0, 78, 64
1, 1760, Note_off_c, 0, 78, 64
1, 1760, Note_off_c, 0, 71, 64
1, 1760, Note_off_c, 0, 66, 64
1, 1760, Note_on_c, 0, 78, 64
1, 1760, Note_on_c, 0, 71, 64
1, 1760, Note_on_c, 0, 66, 64
1, 1792, Note_off_c, 0, 90, 64
1, 1792, Note_off_c, 0, 78, 64
1, 1792, Note_off_c, 0, 71, 64
1, 1792, Note_off_c, 0, 66, 64
1, 1792, Note_on_c, 0, 78, 64
1, 1792, Note_on_c, 0, 71, 64
1, 1792, Note_on_c, 0, 66, 64
1, 1920, Note_off_c, 0, 66, 64
1, 1920, Note_off_c, 0, 71, 64
1, 1920, Note_off_c, 0, 78, 64
1, 1920, Note_on_c, 0, 78, 64
1, 1920, Note_on_c, 0, 71, 64
1, 1920, Note_on_c, 0, 66, 64
1, 1984, Note_off_c, 0, 78, 64
1, 1984, Note_off_c, 0, 71, 64
1, 1984, Note_off_c, 0, 66, 64
1, 2048, Note_on_c, 0, 81, 64
1, 2112, Note_off_c, 0, 81, 64
1, 2112, Note_on_c, 0, 83, 64
1, 2176, Note_off_c, 0, 83, 64
1, 2176, Note_on_c, 0, 72, 64
1, 2176, Note_on_c, 0, 67, 64
1, 2176, Note_on_c, 0, 60, 64
1, 2176, Note_on_c, 0, 84, 64
1, 2272, Note_off_c, 0, 72, 64
1, 2272, Note_off_c, 0, 67, 64
1, 2272, Note_off_c, 0, 60, 64
1, 2272, Note_on_c, 0, 60, 64
1, 2272, Note_on_c, 0, 72, 64
1, 2272, Note_on_c, 0, 67, 64
1, 2304, Note_off_c, 0, 67, 64
1, 2304, Note_off_c, 0, 60, 64
1, 2304, Note_off_c, 0, 72, 64
1, 2304, Note_on_c, 0, 67, 64
1, 2304, Note_on_c, 0, 60, 64
1, 2304, Note_on_c, 0, 72, 64
1, 2368, Note_off_c, 0, 84, 64
1, 2432, Note_off_c, 0, 72, 64
1, 2432, Note_off_c, 0, 60, 64
1, 2432, Note_off_c, 0, 67, 64
1, 2432, Note_on_c, 0, 88, 64
1, 2432, Note_on_c, 0, 72, 64
1, 2432, Note_on_c, 0, 67, 64
1, 2432, Note_on_c, 0, 60, 64
1, 2496, Note_off_c, 0, 72, 64
1, 2496, Note_off_c, 0, 67, 64
1, 2496, Note_off_c, 0, 60, 64
1, 2560, Note_off_c, 0, 88, 64
1, 2560, Note_on_c, 0, 79, 64
1, 2624, Note_off_c, 0, 79, 64
1, 2624, Note_on_c, 0, 81, 64
1, 2688, Note_off_c, 0, 81, 64
1, 2688, Note_on_c, 0, 67, 64
1, 2688, Note_on_c, 0, 71, 64
1, 2688, Note_on_c, 0, 83, 64
1, 2688, Note_on_c, 0, 59, 64
1, 2784, Note_off_c, 0, 59, 64
1, 2784, Note_off_c, 0, 71, 64
1, 2784, Note_off_c, 0, 67, 64
1, 2784, Note_on_c, 0, 67, 64
1, 2784, Note_on_c, 0, 71, 64
1, 2784, Note_on_c, 0, 59, 64
1, 2816, Note_off_c, 0, 67, 64
1, 2816, Note_off_c, 0, 71, 64
1, 2816, Note_off_c, 0, 59, 64
1, 2816, Note_on_c, 0, 67, 64
1, 2816, Note_on_c, 0, 59, 64
1, 2816, Note_on_c, 0, 71, 64
1, 2880, Note_off_c, 0, 83, 64
1, 2944, Note_off_c, 0, 71, 64
1, 2944, Note_off_c, 0, 59, 64
1, 2944, Note_off_c, 0, 67, 64
1, 2944, Note_on_c, 0, 88, 64
1, 2944, Note_on_c, 0, 71, 64
1, 2944, Note_on_c, 0, 67, 64
1, 2944, Note_on_c, 0, 59, 64
1, 3008, Note_off_c, 0, 71, 64
1, 3008, Note_off_c, 0, 67, 64
1, 3008, Note_off_c, 0, 59, 64
1, 3072, Note_off_c, 0, 88, 64
1, 3072, Note_on_c, 0, 78, 64
1, 3136, Note_off_c, 0, 78, 64
1, 3136, Note_on_c, 0, 82, 64
1, 3200, Note_off_c, 0, 82, 64
1, 3200, Note_on_c, 0, 73, 64
1, 3200, Note_on_c, 0, 66, 64
1, 3200, Note_on_c, 0, 90, 64
1, 3200, Note_on_c, 0, 78, 64
1, 3264, Note_off_c, 0, 90, 64
1, 3264, Note_on_c, 0, 88, 64
1, 3296, Note_off_c, 0, 73, 64
1, 3296, Note_off_c, 0, 66, 64
1, 3296, Note_off_c, 0, 78, 64
1, 3296, Note_on_c, 0, 73, 64
1, 3296, Note_on_c, 0, 66, 64
1, 3296, Note_on_c, 0, 78, 64
1, 3328, Note_off_c, 0, 78, 64
1, 3328, Note_off_c, 0, 73, 64
1, 3328, Note_off_c, 0, 66, 64
1, 3328, Note_off_c, 0, 88, 64
1, 3328, Note_on_c, 0, 87, 64
1, 3328, Note_on_c, 0, 78, 64
1, 3328, Note_on_c, 0, 73, 64
1, 3328, Note_on_c, 0, 66, 64
1, 3456, Note_off_c, 0, 78, 64
1, 3456, Note_off_c, 0, 66, 64
1, 3456, Note_off_c, 0, 73, 64
1, 3456, Note_off_c, 0, 87, 64
1, 3456, Note_on_c, 0, 78, 64
1, 3456, Note_on_c, 0, 73, 64
1, 3456, Note_on_c, 0, 66, 64
1, 3520, Note_off_c, 0, 78, 64
1, 3520, Note_off_c, 0, 73, 64
1, 3520, Note_off_c, 0, 66, 64
1, 3520, Note_on_c, 0, 88, 64
1, 3584, Note_off_c, 0, 88, 64
1, 3584, Note_on_c, 0, 90, 64
1, 3712, Note_on_c, 0, 66, 64
1, 3712, Note_on_c, 0, 75, 64
1, 3712, Note_on_c, 0, 78, 64
1, 3808, Note_off_c, 0, 75, 64
1, 3808, Note_off_c, 0, 78, 64
1, 3808, Note_off_c, 0, 66, 64
1, 3808, Note_on_c, 0, 75, 64
1, 3808, Note_on_c, 0, 78, 64
1, 3808, Note_on_c, 0, 66, 64
1, 3840, Note_off_c, 0, 66, 64
1, 3840, Note_off_c, 0, 78, 64
1, 3840, Note_off_c, 0, 75, 64
1, 3840, Note_on_c, 0, 78, 64
1, 3840, Note_on_c, 0, 75, 64
1, 3840, Note_on_c, 0, 66, 64
1, 3968, Note_off_c, 0, 78, 64
1, 3968, Note_off_c, 0, 75, 64
1, 3968, Note_off_c, 0, 66, 64
1, 3968, Note_off_c, 0, 90, 64
1, 3968, Note_on_c, 0, 78, 64
1, 3968, Note_on_c, 0, 66, 64
1, 3968, Note_on_c, 0, 75, 64
1, 4032, Note_off_c, 0, 75, 64
1, 4032, Note_off_c, 0, 78, 64
1, 4032, Note_off_c, 0, 66, 64
1, 4096, Note_on_c, 0, 88, 64
1, 4224, Note_on_c, 0, 71, 64
1, 4224, Note_on_c, 0, 64, 64
1, 4224, Note_on_c, 0, 76, 64
1, 4320, Note_off_c, 0, 71, 64
1, 4320, Note_off_c, 0, 64, 64
1, 4320, Note_off_c, 0, 76, 64
1, 4320, Note_on_c, 0, 76, 64
1, 4320, Note_on_c, 0, 64, 64
1, 4320, Note_on_c, 0, 71, 64
1, 4352, Note_off_c, 0, 64, 64
1, 4352, Note_off_c, 0, 76, 64
1, 4352, Note_off_c, 0, 71, 64
1, 4352, Note_off_c, 0, 88, 64
1, 4352, Note_on_c, 0, 76, 64
1, 4352, Note_on_c, 0, 71, 64
1, 4352, Note_on_c, 0, 64, 64
1, 4416, Note_on_c, 0, 95, 64
1, 4480, Note_off_c, 0, 76, 64
1, 4480, Note_off_c, 0, 71, 64
1, 4480, Note_off_c, 0, 64, 64
1, 4480, Note_off_c, 0, 95, 64
1, 4480, Note_on_c, 0, 93, 64
1, 4480, Note_on_c, 0, 71, 64
1, 4480, Note_on_c, 0, 76, 64
1, 4480, Note_on_c, 0, 64, 64
1, 4544, Note_off_c, 0, 64, 64
1, 4544, Note_off_c, 0, 76, 64
1, 4544, Note_off_c, 0, 93, 64
1, 4544, Note_off_c, 0, 71, 64
1, 4544, Note_on_c, 0, 91, 64
1, 4608, Note_off_c, 0, 91, 64
1, 4608, Note_on_c, 0, 90, 64
1, 4736, Note_on_c, 0, 78, 64
1, 4736, Note_on_c, 0, 71, 64
1, 4736, Note_on_c, 0, 66, 64
1, 4800, Note_off_c, 0, 90, 64
1, 4800, Note_on_c, 0, 86, 64
1, 4832, Note_off_c, 0, 71, 64
1, 4832, Note_off_c, 0, 66, 64
1, 4832, Note_off_c, 0, 78, 64
1, 4832, Note_on_c, 0, 78, 64
1, 4832, Note_on_c, 0, 66, 64
1, 4832, Note_on_c, 0, 71, 64
1, 4864, Note_off_c, 0, 86, 64
1, 4864, Note_off_c, 0, 78, 64
1, 4864, Note_off_c, 0, 66, 64
1, 4864, Note_off_c, 0, 71, 64
1, 4864, Note_on_c, 0, 66, 64
1, 4864, Note_on_c, 0, 71, 64
1, 4864, Note_on_c, 0, 78, 64
1, 4864, Note_on_c, 0, 83, 64
1, 4992, Note_off_c, 0, 78, 64
1, 4992, Note_off_c, 0, 71, 64
1, 4992, Note_off_c, 0, 66, 64
1, 4992, Note_on_c, 0, 66, 64
1, 4992, Note_on_c, 0, 78, 64
1, 4992, Note_on_c, 0, 71, 64
1, 5056, Note_off_c, 0, 78, 64
1, 5056, Note_off_c, 0, 71, 64
1, 5056, Note_off_c, 0, 66, 64
1, 5056, Note_off_c, 0, 83, 64
1, 5120, Note_on_c, 0, 91, 64
1, 5184, Note_off_c, 0, 91, 64
1, 5184, Note_on_c, 0, 90, 64
1, 5248, Note_off_c, 0, 90, 64
1, 5248, Note_on_c, 0, 88, 64
1, 5248, Note_on_c, 0, 76, 64
1, 5248, Note_on_c, 0, 71, 64
1, 5248, Note_on_c, 0, 64, 64
1, 5344, Note_off_c, 0, 76, 64
1, 5344, Note_off_c, 0, 64, 64
1, 5344, Note_off_c, 0, 71, 64
1, 5344, Note_on_c, 0, 76, 64
1, 5344, Note_on_c, 0, 71, 64
1, 5344, Note_on_c, 0, 64, 64
1, 5376, Note_off_c, 0, 76, 64
1, 5376, Note_off_c, 0, 71, 64
1, 5376, Note_off_c, 0, 64, 64
1, 5376, Note_on_c, 0, 64, 64
1, 5376, Note_on_c, 0, 71, 64
1, 5376, Note_on_c, 0, 76, 64
1, 5504, Note_off_c, 0, 64, 64
1, 5504, Note_off_c, 0, 71, 64
1, 5504, Note_off_c, 0, 76, 64
1, 5504, Note_off_c, 0, 88, 64
1, 5504, Note_on_c, 0, 71, 64
1, 5504, Note_on_c, 0, 64, 64
1, 5504, Note_on_c, 0, 91, 64
1, 5504, Note_on_c, 0, 76, 64
1, 5568, Note_off_c, 0, 76, 64
1, 5568, Note_off_c, 0, 71, 64
1, 5568, Note_off_c, 0, 64, 64
1, 5632, Note_off_c, 0, 91, 64
1, 5632, Note_on_c, 0, 90, 64
1, 5760, Note_on_c, 0, 66, 64
1, 5760, Note_on_c, 0, 71, 64
1, 5760, Note_on_c, 0, 78, 64
1, 5856, Note_off_c, 0, 78, 64
1, 5856, Note_off_c, 0, 71, 64
1, 5856, Note_off_c, 0, 66, 64
1, 5856, Note_on_c, 0, 78, 64
1, 5856, Note_on_c, 0, 66, 64
1, 5856, Note_on_c, 0, 71, 64
1, 5888, Note_off_c, 0, 78, 64
1, 5888, Note_off_c, 0, 66, 64
1, 5888, Note_off_c, 0, 71, 64
1, 5888, Note_off_c, 0, 90, 64
1, 5888, Note_on_c, 0, 78, 64
1, 5888, Note_on_c, 0, 71, 64
1, 5888, Note_on_c, 0, 66, 64
1, 6016, Note_off_c, 0, 78, 64
1, 6016, Note_off_c, 0, 66, 64
1, 6016, Note_off_c, 0, 71, 64
1, 6016, Note_on_c, 0, 78, 64
1, 6016, Note_on_c, 0, 71, 64
1, 6016, Note_on_c, 0, 66, 64
1, 6080, Note_off_c, 0, 78, 64
1, 6080, Note_off_c, 0, 71, 64
1, 6080, Note_off_c, 0, 66, 64
1, 6144, Note_on_c, 0, 81, 64
1, 6176, Note_off_c, 0, 81, 64
1, 6176, Note_on_c, 0, 80, 64
1, 6208, Note_off_c, 0, 80, 64
1, 6208, Note_on_c, 0, 81, 64
1, 6240, Note_off_c, 0, 81, 64
1, 6240, Note_on_c, 0, 83, 64
1, 6272, Note_off_c, 0, 83, 64
1, 6272, Note_on_c, 0, 72, 64
1, 6272, Note_on_c, 0, 60, 64
1, 6272, Note_on_c, 0, 67, 64
1, 6272, Note_on_c, 0, 84, 64
1, 6368, Note_off_c, 0, 72, 64
1, 6368, Note_off_c, 0, 67, 64
1, 6368, Note_off_c, 0, 60, 64
1, 6368, Note_on_c, 0, 72, 64
1, 6368, Note_on_c, 0, 67, 64
1, 6368, Note_on_c, 0, 60, 64
1, 6400, Note_off_c, 0, 67, 64
1, 6400, Note_off_c, 0, 60, 64
1, 6400, Note_off_c, 0, 72, 64
1, 6400, Note_on_c, 0, 72, 64
1, 6400, Note_on_c, 0, 60, 64
1, 6400, Note_on_c, 0, 67, 64
1, 6464, Note_off_c, 0, 84, 64
1, 6528, Note_off_c, 0, 72, 64
1, 6528, Note_off_c, 0, 60, 64
1, 6528, Note_off_c, 0, 67, 64
1, 6528, Note_on_c, 0, 72, 64
1, 6528, Note_on_c, 0, 60, 64
1, 6528, Note_on_c, 0, 67, 64
1, 6528, Note_on_c, 0, 88, 64
1, 6592, Note_off_c, 0, 72, 64
1, 6592, Note_off_c, 0, 67, 64
1, 6592, Note_off_c, 0, 60, 64
1, 6656, Note_off_c, 0, 88, 64
1, 6656, Note_on_c, 0, 79, 64
1, 6688, Note_off_c, 0, 79, 64
1, 6688, Note_on_c, 0, 78, 64
1, 6720, Note_off_c, 0, 78, 64
1, 6720, Note_on_c, 0, 79, 64
1, 6752, Note_off_c, 0, 79, 64
1, 6752, Note_on_c, 0, 81, 64
1, 6784, Note_off_c, 0, 81, 64
1, 6784, Note_on_c, 0, 59, 64
1, 6784, Note_on_c, 0, 67, 64
1, 6784, Note_on_c, 0, 71, 64
1, 6784, Note_on_c, 0, 83, 64
1, 6880, Note_off_c, 0, 59, 64
1, 6880, Note_off_c, 0, 67, 64
1, 6880, Note_off_c, 0, 71, 64
1, 6880, Note_on_c, 0, 59, 64
1, 6880, Note_on_c, 0, 67, 64
1, 6880, Note_on_c, 0, 71, 64
1, 6912, Note_off_c, 0, 59, 64
1, 6912, Note_off_c, 0, 67, 64
1, 6912, Note_off_c, 0, 71, 64
1, 6912, Note_on_c, 0, 71, 64
1, 6912, Note_on_c, 0, 67, 64
1, 6912, Note_on_c, 0, 59, 64
1, 6976, Note_off_c, 0, 83, 64
1, 7040, Note_off_c, 0, 71, 64
1, 7040, Note_off_c, 0, 67, 64
1, 7040, Note_off_c, 0, 59, 64
1, 7040, Note_on_c, 0, 67, 64
1, 7040, Note_on_c, 0, 59, 64
1, 7040, Note_on_c, 0, 88, 64
1, 7040, Note_on_c, 0, 71, 64
1, 7104, Note_off_c, 0, 71, 64
1, 7104, Note_off_c, 0, 67, 64
1, 7104, Note_off_c, 0, 59, 64
1, 7168, Note_off_c, 0, 88, 64
1, 7168, Note_on_c, 0, 79, 64
1, 7232, Note_off_c, 0, 79, 64
1, 7232, Note_on_c, 0, 83, 64
1, 7296, Note_off_c, 0, 83, 64
1, 7296, Note_on_c, 0, 90, 64
1, 7296, Note_on_c, 0, 66, 64
1, 7296, Note_on_c, 0, 71, 64
1, 7296, Note_on_c, 0, 78, 64
1, 7360, Note_off_c, 0, 90, 64
1, 7360, Note_on_c, 0, 88, 64
1, 7392, Note_off_c, 0, 78, 64
1, 7392, Note_off_c, 0, 71, 64
1, 7392, Note_off_c, 0, 66, 64
1, 7392, Note_on_c, 0, 71, 64
1, 7392, Note_on_c, 0, 78, 64
1, 7392, Note_on_c, 0, 66, 64
1, 7424, Note_off_c, 0, 71, 64
1, 7424, Note_off_c, 0, 88, 64
1, 7424, Note_off_c, 0, 66, 64
1, 7424, Note_off_c, 0, 78, 64
1, 7424, Note_on_c, 0, 71, 64
1, 7424, Note_on_c, 0, 66, 64
1, 7424, Note_on_c, 0, 87, 64
1, 7424, Note_on_c, 0, 78, 64
1, 7552, Note_off_c, 0, 78, 64
1, 7552, Note_off_c, 0, 71, 64
1, 7552, Note_off_c, 0, 66, 64
1, 7552, Note_off_c, 0, 87, 64
1, 7552, Note_on_c, 0, 78, 64
1, 7552, Note_on_c, 0, 71, 64
1, 7552, Note_on_c, 0, 66, 64
1, 7616, Note_off_c, 0, 78, 64
1, 7616, Note_off_c, 0, 66, 64
1, 7616, Note_off_c, 0, 71, 64
1, 7616, Note_on_c, 0, 83, 64
1, 7680, Note_off_c, 0, 83, 64
1, 7680, Note_on_c, 0, 90, 64
1, 7744, Note_off_c, 0, 90, 64
1, 7744, Note_on_c, 0, 91, 64
1, 7776, Note_off_c, 0, 91, 64
1, 7776, Note_on_c, 0, 90, 64
1, 7808, Note_off_c, 0, 90, 64
1, 7808, Note_on_c, 0, 64, 64
1, 7808, Note_on_c, 0, 71, 64
1, 7808, Note_on_c, 0, 76, 64
1, 7808, Note_on_c, 0, 88, 64
1, 7904, Note_off_c, 0, 76, 64
1, 7904, Note_off_c, 0, 71, 64
1, 7904, Note_off_c, 0, 64, 64
1, 7904, Note_on_c, 0, 76, 64
1, 7904, Note_on_c, 0, 71, 64
1, 7904, Note_on_c, 0, 64, 64
1, 7936, Note_off_c, 0, 76, 64
1, 7936, Note_off_c, 0, 71, 64
1, 7936, Note_off_c, 0, 64, 64
1, 7936, Note_on_c, 0, 76, 64
1, 7936, Note_on_c, 0, 71, 64
1, 7936, Note_on_c, 0, 64, 64
1, 8064, Note_off_c, 0, 64, 64
1, 8064, Note_off_c, 0, 76, 64
1, 8064, Note_off_c, 0, 71, 64
1, 8064, Note_on_c, 0, 76, 64
1, 8064, Note_on_c, 0, 71, 64
1, 8064, Note_on_c, 0, 64, 64
1, 8128, Note_off_c, 0, 76, 64
1, 8128, Note_off_c, 0, 71, 64
1, 8128, Note_off_c, 0, 64, 64
1, 8192, Note_off_c, 0, 88, 64
1, 8192, Note_on_c, 0, 76, 64
1, 8320, Note_off_c, 0, 76, 64
1, 8320, Note_on_c, 0, 79, 64
1, 8448, Note_off_c, 0, 79, 64
1, 8448, Note_on_c, 0, 83, 64
1, 8512, Note_off_c, 0, 83, 64
1, 8512, Note_on_c, 0, 88, 64
1, 8640, Note_off_c, 0, 88, 64
1, 8640, Note_on_c, 0, 91, 64
1, 8704, Note_on_c, 0, 79, 64
1, 8704, Note_on_c, 0, 71, 64
1, 8704, Note_on_c, 0, 67, 64
1, 8832, Note_off_c, 0, 79, 64
1, 8832, Note_off_c, 0, 71, 64
1, 8832, Note_off_c, 0, 67, 64
1, 8832, Note_on_c, 0, 71, 64
1, 8832, Note_on_c, 0, 67, 64
1, 8832, Note_on_c, 0, 79, 64
1, 8864, Note_off_c, 0, 79, 64
1, 8864, Note_off_c, 0, 71, 64
1, 8864, Note_off_c, 0, 67, 64
1, 8960, Note_off_c, 0, 91, 64
1, 9024, Note_on_c, 0, 67, 64
1, 9024, Note_on_c, 0, 71, 64
1, 9024, Note_on_c, 0, 79, 64
1, 9152, Note_off_c, 0, 79, 64
1, 9152, Note_off_c, 0, 71, 64
1, 9152, Note_off_c, 0, 67, 64
1, 9152, Note_on_c, 0, 79, 64
1, 9152, Note_on_c, 0, 67, 64
1, 9152, Note_on_c, 0, 71, 64
1, 9184, Note_off_c, 0, 71, 64
1, 9184, Note_off_c, 0, 67, 64
1, 9184, Note_off_c, 0, 79, 64
1, 9216, Note_on_c, 0, 91, 64
1, 9344, Note_off_c, 0, 91, 64
1, 9344, Note_on_c, 0, 90, 64
1, 9472, Note_off_c, 0, 90, 64
1, 9472, Note_on_c, 0, 88, 64
1, 9536, Note_off_c, 0, 88, 64
1, 9536, Note_on_c, 0, 83, 64
1, 9664, Note_off_c, 0, 83, 64
1, 9664, Note_on_c, 0, 84, 64
1, 9728, Note_on_c, 0, 76, 64
1, 9728, Note_on_c, 0, 79, 64
1, 9728, Note_on_c, 0, 67, 64
1, 9856, Note_off_c, 0, 79, 64
1, 9856, Note_off_c, 0, 67, 64
1, 9856, Note_off_c, 0, 76, 64
1, 9856, Note_on_c, 0, 79, 64
1, 9856, Note_on_c, 0, 76, 64
1, 9856, Note_on_c, 0, 67, 64
1, 9888, Note_off_c, 0, 79, 64
1, 9888, Note_off_c, 0, 76, 64
1, 9888, Note_off_c, 0, 67, 64
1, 9984, Note_off_c, 0, 84, 64
1, 10048, Note_on_c, 0, 79, 64
1, 10048, Note_on_c, 0, 76, 64
1, 10048, Note_on_c, 0, 67, 64
1, 10176, Note_off_c, 0, 79, 64
1, 10176, Note_off_c, 0, 76, 64
1, 10176, Note_off_c, 0, 67, 64
1, 10176, Note_on_c, 0, 76, 64
1, 10176, Note_on_c, 0, 67, 64
1, 10176, Note_on_c, 0, 79, 64
1, 10208, Note_off_c, 0, 67, 64
1, 10208, Note_off_c, 0, 76, 64
1, 10208, Note_off_c, 0, 79, 64
1, 10240, Note_on_c, 0, 75, 64
1, 10368, Note_off_c, 0, 75, 64
1, 10368, Note_on_c, 0, 78, 64
1, 10496, Note_off_c, 0, 78, 64
1, 10496, Note_on_c, 0, 83, 64
1, 10560, Note_off_c, 0, 83, 64
1, 10560, Note_on_c, 0, 87, 64
1, 10688, Note_off_c, 0, 87, 64
1, 10688, Note_on_c, 0, 90, 64
1, 10752, Note_on_c, 0, 78, 64
1, 10752, Note_on_c, 0, 71, 64
1, 10752, Note_on_c, 0, 66, 64
1, 10880, Note_off_c, 0, 71, 64
1, 10880, Note_off_c, 0, 78, 64
1, 10880, Note_off_c, 0, 66, 64
1, 10880, Note_on_c, 0, 78, 64
1, 10880, Note_on_c, 0, 71, 64
1, 10880, Note_on_c, 0, 66, 64
1, 10912, Note_off_c, 0, 78, 64
1, 10912, Note_off_c, 0, 71, 64
1, 10912, Note_off_c, 0, 66, 64
1, 11008, Note_off_c, 0, 90, 64
1, 11072, Note_on_c, 0, 78, 64
1, 11072, Note_on_c, 0, 66, 64
1, 11072, Note_on_c, 0, 71, 64
1, 11200, Note_off_c, 0, 71, 64
1, 11200, Note_off_c, 0, 78, 64
1, 11200, Note_off_c, 0, 66, 64
1, 11200, Note_on_c, 0, 66, 64
1, 11200, Note_on_c, 0, 71, 64
1, 11200, Note_on_c, 0, 78, 64
1, 11232, Note_off_c, 0, 66, 64
1, 11232, Note_off_c, 0, 78, 64
1, 11232, Note_off_c, 0, 71, 64
1, 11264, Note_on_c, 0, 90, 64
1, 11392, Note_off_c, 0, 90, 64
1, 11392, Note_on_c, 0, 88, 64
1, 11520, Note_off_c, 0, 88, 64
1, 11520, Note_on_c, 0, 87, 64
1, 11584, Note_off_c, 0, 87, 64
1, 11584, Note_on_c, 0, 84, 64
1, 11712, Note_off_c, 0, 84, 64
1, 11712, Note_on_c, 0, 83, 64
1, 11776, Note_on_c, 0, 79, 64
1, 11776, Note_on_c, 0, 71, 64
1, 11776, Note_on_c, 0, 67, 64
1, 11904, Note_off_c, 0, 79, 64
1, 11904, Note_off_c, 0, 67, 64
1, 11904, Note_off_c, 0, 71, 64
1, 11904, Note_on_c, 0, 67, 64
1, 11904, Note_on_c, 0, 79, 64
1, 11904, Note_on_c, 0, 71, 64
1, 11936, Note_off_c, 0, 79, 64
1, 11936, Note_off_c, 0, 71, 64
1, 11936, Note_off_c, 0, 67, 64
1, 12032, Note_off_c, 0, 83, 64
1, 12096, Note_on_c, 0, 79, 64
1, 12096, Note_on_c, 0, 71, 64
1, 12096, Note_on_c, 0, 67, 64
1, 12224, Note_off_c, 0, 79, 64
1, 12224, Note_off_c, 0, 71, 64
1, 12224, Note_off_c, 0, 67, 64
1, 12224, Note_on_c, 0, 79, 64
1, 12224, Note_on_c, 0, 71, 64
1, 12224, Note_on_c, 0, 67, 64
1, 12256, Note_off_c, 0, 79, 64
1, 12256, Note_off_c, 0, 67, 64
1, 12256, Note_off_c, 0, 71, 64
1, 12288, Note_on_c, 0, 76, 64
1, 12416, Note_off_c, 0, 76, 64
1, 12416, Note_on_c, 0, 79, 64
1, 12544, Note_off_c, 0, 79, 64
1, 12544, Note_on_c, 0, 83, 64
1, 12608, Note_off_c, 0, 83, 64
1, 12608, Note_on_c, 0, 88, 64
1, 12736, Note_off_c, 0, 88, 64
1, 12736, Note_on_c, 0, 91, 64
1, 12800, Note_on_c, 0, 79, 64
1, 12800, Note_on_c, 0, 67, 64
1, 12800, Note_on_c, 0, 71, 64
1, 12832, Note_off_c, 0, 67, 64
1, 12832, Note_off_c, 0, 71, 64
1, 12832, Note_off_c, 0, 79, 64
1, 12832, Note_on_c, 0, 79, 64
1, 12832, Note_on_c, 0, 71, 64
1, 12832, Note_on_c, 0, 67, 64
1, 12864, Note_off_c, 0, 79, 64
1, 12864, Note_off_c, 0, 71, 64
1, 12864, Note_off_c, 0, 67, 64
1, 12992, Note_on_c, 0, 71, 64
1, 12992, Note_on_c, 0, 67, 64
1, 12992, Note_on_c, 0, 79, 64
1, 13024, Note_off_c, 0, 71, 64
1, 13024, Note_off_c, 0, 79, 64
1, 13024, Note_off_c, 0, 67, 64
1, 13024, Note_on_c, 0, 79, 64
1, 13024, Note_on_c, 0, 71, 64
1, 13024, Note_on_c, 0, 67, 64
1, 13056, Note_off_c, 0, 91, 64
1, 13056, Note_off_c, 0, 79, 64
1, 13056, Note_off_c, 0, 71, 64
1, 13056, Note_off_c, 0, 67, 64
1, 13184, Note_on_c, 0, 79, 64
1, 13184, Note_on_c, 0, 71, 64
1, 13184, Note_on_c, 0, 67, 64
1, 13216, Note_off_c, 0, 79, 64
1, 13216, Note_off_c, 0, 71, 64
1, 13216, Note_off_c, 0, 67, 64
1, 13216, Note_on_c, 0, 67, 64
1, 13216, Note_on_c, 0, 71, 64
1, 13216, Note_on_c, 0, 79, 64
1, 13248, Note_off_c, 0, 67, 64
1, 13248, Note_off_c, 0, 71, 64
1, 13248, Note_off_c, 0, 79, 64
1, 13248, Note_on_c, 0, 83, 64
1, 13312, Note_off_c, 0, 83, 64
1, 13312, Note_on_c, 0, 79, 64
1, 13312, Note_on_c, 0, 71, 64
1, 13312, Note_on_c, 0, 67, 64
1, 13312, Note_on_c, 0, 91, 64
1, 13344, Note_off_c, 0, 79, 64
1, 13344, Note_off_c, 0, 71, 64
1, 13344, Note_off_c, 0, 67, 64
1, 13344, Note_on_c, 0, 79, 64
1, 13344, Note_on_c, 0, 71, 64
1, 13344, Note_on_c, 0, 67, 64
1, 13376, Note_off_c, 0, 71, 64
1, 13376, Note_off_c, 0, 67, 64
1, 13376, Note_off_c, 0, 79, 64
1, 13440, Note_off_c, 0, 91, 64
1, 13440, Note_on_c, 0, 90, 64
1, 13504, Note_on_c, 0, 79, 64
1, 13504, Note_on_c, 0, 67, 64
1, 13504, Note_on_c, 0, 71, 64
1, 13536, Note_off_c, 0, 79, 64
1, 13536, Note_off_c, 0, 67, 64
1, 13536, Note_off_c, 0, 71, 64
1, 13536, Note_on_c, 0, 79, 64
1, 13536, Note_on_c, 0, 71, 64
1, 13536, Note_on_c, 0, 67, 64
1, 13568, Note_off_c, 0, 90, 64
1, 13568, Note_off_c, 0, 67, 64
1, 13568, Note_off_c, 0, 71, 64
1, 13568, Note_off_c, 0, 79, 64
1, 13568, Note_on_c, 0, 88, 64
1, 13632, Note_off_c, 0, 88, 64
1, 13632, Note_on_c, 0, 91, 64
1, 13696, Note_off_c, 0, 91, 64
1, 13696, Note_on_c, 0, 90, 64
1, 13760, Note_off_c, 0, 90, 64
1, 13760, Note_on_c, 0, 84, 64
1, 13824, Note_on_c, 0, 79, 64
1, 13824, Note_on_c, 0, 76, 64
1, 13824, Note_on_c, 0, 67, 64
1, 13856, Note_off_c, 0, 79, 64
1, 13856, Note_off_c, 0, 76, 64
1, 13856, Note_off_c, 0, 67, 64
1, 13856, Note_on_c, 0, 79, 64
1, 13856, Note_on_c, 0, 76, 64
1, 13856, Note_on_c, 0, 67, 64
1, 13888, Note_off_c, 0, 79, 64
1, 13888, Note_off_c, 0, 76, 64
1, 13888, Note_off_c, 0, 67, 64
1, 14016, Note_on_c, 0, 79, 64
1, 14016, Note_on_c, 0, 76, 64
1, 14016, Note_on_c, 0, 67, 64
1, 14048, Note_off_c, 0, 76, 64
1, 14048, Note_off_c, 0, 79, 64
1, 14048, Note_off_c, 0, 67, 64
1, 14048, Note_on_c, 0, 79, 64
1, 14048, Note_on_c, 0, 76, 64
1, 14048, Note_on_c, 0, 67, 64
1, 14080, Note_off_c, 0, 84, 64
1, 14080, Note_off_c, 0, 79, 64
1, 14080, Note_off_c, 0, 76, 64
1, 14080, Note_off_c, 0, 67, 64
1, 14208, Note_on_c, 0, 79, 64
1, 14208, Note_on_c, 0, 67, 64
1, 14208, Note_on_c, 0, 76, 64
1, 14240, Note_off_c, 0, 76, 64
1, 14240, Note_off_c, 0, 79, 64
1, 14240, Note_off_c, 0, 67, 64
1, 14240, Note_on_c, 0, 79, 64
1, 14240, Note_on_c, 0, 67, 64
1, 14240, Note_on_c, 0, 76, 64
1, 14272, Note_off_c, 0, 79, 64
1, 14272, Note_off_c, 0, 76, 64
1, 14272, Note_off_c, 0, 67, 64
1, 14272, Note_on_c, 0, 71, 64
1, 14336, Note_off_c, 0, 71, 64
1, 14336, Note_on_c, 0, 76, 64
1, 14336, Note_on_c, 0, 79, 64
1, 14336, Note_on_c, 0, 67, 64
1, 14336, Note_on_c, 0, 75, 64
1, 14368, Note_off_c, 0, 76, 64
1, 14368, Note_off_c, 0, 79, 64
1, 14368, Note_off_c, 0, 67, 64
1, 14368, Note_on_c, 0, 79, 64
1, 14368, Note_on_c, 0, 67, 64
1, 14368, Note_on_c, 0, 76, 64
1, 14400, Note_off_c, 0, 79, 64
1, 14400, Note_off_c, 0, 76, 64
1, 14400, Note_off_c, 0, 67, 64
1, 14464, Note_off_c, 0, 75, 64
1, 14464, Note_on_c, 0, 78, 64
1, 14528, Note_on_c, 0, 76, 64
1, 14528, Note_on_c, 0, 67, 64
1, 14528, Note_on_c, 0, 79, 64
1, 14560, Note_off_c, 0, 79, 64
1, 14560, Note_off_c, 0, 76, 64
1, 14560, Note_off_c, 0, 67, 64
1, 14560, Note_on_c, 0, 67, 64
1, 14560, Note_on_c, 0, 76, 64
1, 14560, Note_on_c, 0, 79, 64
1, 14592, Note_off_c, 0, 79, 64
1, 14592, Note_off_c, 0, 76, 64
1, 14592, Note_off_c, 0, 67, 64
1, 14592, Note_off_c, 0, 78, 64
1, 14592, Note_on_c, 0, 83, 64
1, 14656, Note_off_c, 0, 83, 64
1, 14656, Note_on_c, 0, 87, 64
1, 14784, Note_off_c, 0, 87, 64
1, 14784, Note_on_c, 0, 90, 64
1, 14848, Note_on_c, 0, 66, 64
1, 14848, Note_on_c, 0, 71, 64
1, 14848, Note_on_c, 0, 78, 64
1, 14880, Note_off_c, 0, 66, 64
1, 14880, Note_off_c, 0, 78, 64
1, 14880, Note_off_c, 0, 71, 64
1, 14880, Note_on_c, 0, 78, 64
1, 14880, Note_on_c, 0, 71, 64
1, 14880, Note_on_c, 0, 66, 64
1, 14912, Note_off_c, 0, 78, 64
1, 14912, Note_off_c, 0, 71, 64
1, 14912, Note_off_c, 0, 66, 64
1, 15040, Note_on_c, 0, 78, 64
1, 15040, Note_on_c, 0, 71, 64
1, 15040, Note_on_c, 0, 66, 64
1, 15072, Note_off_c, 0, 78, 64
1, 15072, Note_off_c, 0, 66, 64
1, 15072, Note_off_c, 0, 71, 64
1, 15072, Note_on_c, 0, 78, 64
1, 15072, Note_on_c, 0, 71, 64
1, 15072, Note_on_c, 0, 66, 64
1, 15104, Note_off_c, 0, 90, 64
1, 15104, Note_off_c, 0, 66, 64
1, 15104, Note_off_c, 0, 71, 64
1, 15104, Note_off_c, 0, 78, 64
1, 15232, Note_on_c, 0, 78, 64
1, 15232, Note_on_c, 0, 71, 64
1, 15232, Note_on_c, 0, 66, 64
1, 15264, Note_off_c, 0, 78, 64
1, 15264, Note_off_c, 0, 71, 64
1, 15264, Note_off_c, 0, 66, 64
1, 15264, Note_on_c, 0, 66, 64
1, 15264, Note_on_c, 0, 78, 64
1, 15264, Note_on_c, 0, 71, 64
1, 15296, Note_off_c, 0, 66, 64
1, 15296, Note_off_c, 0, 78, 64
1, 15296, Note_off_c, 0, 71, 64
1, 15296, Note_on_c, 0, 83, 64
1, 15360, Note_off_c, 0, 83, 64
1, 15360, Note_on_c, 0, 90, 64
1, 15360, Note_on_c, 0, 66, 64
1, 15360, Note_on_c, 0, 71, 64
1, 15360, Note_on_c, 0, 78, 64
1, 15392, Note_off_c, 0, 78, 64
1, 15392, Note_off_c, 0, 66, 64
1, 15392, Note_off_c, 0, 71, 64
1, 15392, Note_on_c, 0, 78, 64
1, 15392, Note_on_c, 0, 71, 64
1, 15392, Note_on_c, 0, 66, 64
1, 15424, Note_off_c, 0, 78, 64
1, 15424, Note_off_c, 0, 71, 64
1, 15424, Note_off_c, 0, 66, 64
1, 15488, Note_off_c, 0, 90, 64
1, 15488, Note_on_c, 0, 88, 64
1, 15552, Note_on_c, 0, 78, 64
1, 15552, Note_on_c, 0, 71, 64
1, 15552, Note_on_c, 0, 66, 64
1, 15584, Note_off_c, 0, 71, 64
1, 15584, Note_off_c, 0, 66, 64
1, 15584, Note_off_c, 0, 78, 64
1, 15584, Note_on_c, 0, 78, 64
1, 15584, Note_on_c, 0, 71, 64
1, 15584, Note_on_c, 0, 66, 64
1, 15616, Note_off_c, 0, 88, 64
1, 15616, Note_off_c, 0, 78, 64
1, 15616, Note_off_c, 0, 71, 64
1, 15616, Note_off_c, 0, 66, 64
1, 15616, Note_on_c, 0, 87, 64
1, 15680, Note_off_c, 0, 87, 64
1, 15680, Note_on_c, 0, 83, 64
1, 15744, Note_off_c, 0, 83, 64
1, 15744, Note_on_c, 0, 90, 64
1, 15808, Note_off_c, 0, 90, 64
1, 15808, Note_on_c, 0, 91, 64
1, 15840, Note_off_c, 0, 91, 64
1, 15840, Note_on_c, 0, 90, 64
1, 15872, Note_off_c, 0, 90, 64
1, 15872, Note_on_c, 0, 88, 64
1, 15872, Note_on_c, 0, 76, 64
1, 15872, Note_on_c, 0, 71, 64
1, 15872, Note_on_c, 0, 64, 64
1, 15904, Note_off_c, 0, 76, 64
1, 15904, Note_off_c, 0, 71, 64
1, 15904, Note_off_c, 0, 64, 64
1, 15904, Note_on_c, 0, 76, 64
1, 15904, Note_on_c, 0, 64, 64
1, 15904, Note_on_c, 0, 71, 64
1, 15936, Note_off_c, 0, 64, 64
1, 15936, Note_off_c, 0, 76, 64
1, 15936, Note_off_c, 0, 71, 64
1, 16064, Note_off_c, 0, 88, 64
1, 16064, Note_on_c, 0, 88, 64
1, 16064, Note_on_c, 0, 64, 64
1, 16064, Note_on_c, 0, 76, 64
1, 16064, Note_on_c, 0, 71, 64
1, 16096, Note_off_c, 0, 71, 64
1, 16096, Note_off_c, 0, 76, 64
1, 16096, Note_off_c, 0, 64, 64
1, 16096, Note_on_c, 0, 76, 64
1, 16096, Note_on_c, 0, 71, 64
1, 16096, Note_on_c, 0, 64, 64
1, 16128, Note_off_c, 0, 76, 64
1, 16128, Note_off_c, 0, 71, 64
1, 16128, Note_off_c, 0, 64, 64
1, 16256, Note_off_c, 0, 88, 64
1, 16256, Note_on_c, 0, 64, 64
1, 16256, Note_on_c, 0, 71, 64
1, 16256, Note_on_c, 0, 76, 64
1, 16256, Note_on_c, 0, 88, 64
1, 16288, Note_off_c, 0, 76, 64
1, 16288, Note_off_c, 0, 71, 64
1, 16288, Note_off_c, 0, 64, 64
1, 16288, Note_on_c, 0, 71, 64
1, 16288, Note_on_c, 0, 76, 64
1, 16288, Note_on_c, 0, 64, 64
1, 16320, Note_off_c, 0, 71, 64
1, 16320, Note_off_c, 0, 76, 64
1, 16320, Note_off_c, 0, 64, 64
1, 16384, Note_on_c, 0, 76, 64
1, 16384, Note_on_c, 0, 64, 64
1, 16384, Note_on_c, 0, 71, 64
1, 16416, Note_off_c, 0, 76, 64
1, 16416, Note_off_c, 0, 71, 64
1, 16416, Note_off_c, 0, 64, 64
1, 16416, Note_on_c, 0, 76, 64
1, 16416, Note_on_c, 0, 71, 64
1, 16416, Note_on_c, 0, 64, 64
1, 16448, Note_off_c, 0, 88, 64
1, 16448, Note_off_c, 0, 64, 64
1, 16448, Note_off_c, 0, 76, 64
1, 16448, Note_off_c, 0, 71, 64
1, 16448, Note_on_c, 0, 88, 64
1, 16576, Note_on_c, 0, 71, 64
1, 16576, Note_on_c, 0, 64, 64
1, 16576, Note_on_c, 0, 76, 64
1, 16608, Note_off_c, 0, 71, 64
1, 16608, Note_off_c, 0, 64, 64
1, 16608, Note_off_c, 0, 76, 64
1, 16608, Note_on_c, 0, 76, 64
1, 16608, Note_on_c, 0, 71, 64
1, 16608, Note_on_c, 0, 64, 64
1, 16640, Note_off_c, 0, 88, 64
1, 16640, Note_off_c, 0, 76, 64
1, 16640, Note_off_c, 0, 71, 64
1, 16640, Note_off_c, 0, 64, 64
1, 16640, Note_on_c, 0, 88, 64
1, 16768, Note_off_c, 0, 88, 64
1, 16768, Note_on_c, 0, 88, 64
1, 16896, Note_off_c, 0, 88, 64
1, 16896, Note_on_c, 0, 64, 64
1, 16896, Note_on_c, 0, 76, 64
1, 16896, Note_on_c, 0, 88, 64
1, 16896, Note_on_c, 0, 71, 64
1, 17024, Note_off_c, 0, 64, 64
1, 17024, Note_off_c, 0, 76, 64
1, 17024, Note_off_c, 0, 71, 64
1, 17024, Note_on_c, 0, 76, 64
1, 17024, Note_on_c, 0, 71, 64
1, 17024, Note_on_c, 0, 64, 64
1, 17120, Note_off_c, 0, 64, 64
1, 17120, Note_off_c, 0, 76, 64
1, 17120, Note_off_c, 0, 71, 64
1, 17120, Note_on_c, 0, 76, 64
1, 17120, Note_on_c, 0, 71, 64
1, 17120, Note_on_c, 0, 64, 64
1, 17152, Note_off_c, 0, 88, 64
1, 17152, Note_off_c, 0, 76, 64
1, 17152, Note_off_c, 0, 71, 64
1, 17152, Note_off_c, 0, 64, 64
1, 17152, Note_on_c, 0, 71, 64
1, 17152, Note_on_c, 0, 64, 64
1, 17152, Note_on_c, 0, 76, 64
1, 17216, Note_on_c, 0, 95, 64
1, 17280, Note_off_c, 0, 76, 64
1, 17280, Note_off_c, 0, 95, 64
1, 17280, Note_off_c, 0, 64, 64
1, 17280, Note_off_c, 0, 71, 64
1, 17280, Note_on_c, 0, 93, 64
1, 17280, Note_on_c, 0, 76, 64
1, 17280, Note_on_c, 0, 71, 64
1, 17280, Note_on_c, 0, 64, 64
1, 17344, Note_off_c, 0, 93, 64
1, 17344, Note_off_c, 0, 76, 64
1, 17344, Note_off_c, 0, 71, 64
1, 17344, Note_off_c, 0, 64, 64
1, 17344, Note_on_c, 0, 91, 64
1, 17408, Note_off_c, 0, 91, 64
1, 17408, Note_on_c, 0, 90, 64
1, 17536, Note_on_c, 0, 71, 64
1, 17536, Note_on_c, 0, 78, 64
1, 17536, Note_on_c, 0, 66, 64
1, 17600, Note_off_c, 0, 90, 64
1, 17600, Note_on_c, 0, 86, 64
1, 17632, Note_off_c, 0, 71, 64
1, 17632, Note_off_c, 0, 78, 64
1, 17632, Note_off_c, 0, 66, 64
1, 17632, Note_on_c, 0, 78, 64
1, 17632, Note_on_c, 0, 71, 64
1, 17632, Note_on_c, 0, 66, 64
1, 17664, Note_off_c, 0, 86, 64
1, 17664, Note_off_c, 0, 66, 64
1, 17664, Note_off_c, 0, 71, 64
1, 17664, Note_off_c, 0, 78, 64
1, 17664, Note_on_c, 0, 66, 64
1, 17664, Note_on_c, 0, 71, 64
1, 17664, Note_on_c, 0, 83, 64
1, 17664, Note_on_c, 0, 78, 64
1, 17792, Note_off_c, 0, 78, 64
1, 17792, Note_off_c, 0, 71, 64
1, 17792, Note_off_c, 0, 66, 64
1, 17792, Note_on_c, 0, 78, 64
1, 17792, Note_on_c, 0, 66, 64
1, 17792, Note_on_c, 0, 71, 64
1, 17856, Note_off_c, 0, 83, 64
1, 17856, Note_off_c, 0, 78, 64
1, 17856, Note_off_c, 0, 66, 64
1, 17856, Note_off_c, 0, 71, 64
1, 17920, Note_on_c, 0, 84, 64
1, 17952, Note_off_c, 0, 84, 64
1, 17952, Note_on_c, 0, 83, 64
1, 17984, Note_off_c, 0, 83, 64
1, 17984, Note_on_c, 0, 84, 64
1, 18016, Note_off_c, 0, 84, 64
1, 18016, Note_on_c, 0, 86, 64
1, 18048, Note_off_c, 0, 86, 64
1, 18048, Note_on_c, 0, 64, 64
1, 18048, Note_on_c, 0, 76, 64
1, 18048, Note_on_c, 0, 88, 64
1, 18048, Note_on_c, 0, 71, 64
1, 18144, Note_off_c, 0, 64, 64
1, 18144, Note_off_c, 0, 71, 64
1, 18144, Note_off_c, 0, 76, 64
1, 18144, Note_on_c, 0, 76, 64
1, 18144, Note_on_c, 0, 71, 64
1, 18144, Note_on_c, 0, 64, 64
1, 18176, Note_off_c, 0, 76, 64
1, 18176, Note_off_c, 0, 71, 64
1, 18176, Note_off_c, 0, 64, 64
1, 18176, Note_on_c, 0, 76, 64
1, 18176, Note_on_c, 0, 71, 64
1, 18176, Note_on_c, 0, 64, 64
1, 18240, Note_on_c, 0, 83, 64
1, 18304, Note_off_c, 0, 71, 64
1, 18304, Note_off_c, 0, 88, 64
1, 18304, Note_off_c, 0, 83, 64
1, 18304, Note_off_c, 0, 64, 64
1, 18304, Note_off_c, 0, 76, 64
1, 18304, Note_on_c, 0, 91, 64
1, 18304, Note_on_c, 0, 64, 64
1, 18304, Note_on_c, 0, 71, 64
1, 18304, Note_on_c, 0, 76, 64
1, 18368, Note_off_c, 0, 91, 64
1, 18368, Note_off_c, 0, 76, 64
1, 18368, Note_off_c, 0, 71, 64
1, 18368, Note_off_c, 0, 64, 64
1, 18368, Note_on_c, 0, 93, 64
1, 18400, Note_off_c, 0, 93, 64
1, 18400, Note_on_c, 0, 91, 64
1, 18432, Note_off_c, 0, 91, 64
1, 18432, Note_on_c, 0, 90, 64
1, 18560, Note_on_c, 0, 78, 64
1, 18560, Note_on_c, 0, 66, 64
1, 18560, Note_on_c, 0, 71, 64
1, 18656, Note_off_c, 0, 71, 64
1, 18656, Note_off_c, 0, 78, 64
1, 18656, Note_off_c, 0, 66, 64
1, 18656, Note_on_c, 0, 78, 64
1, 18656, Note_on_c, 0, 66, 64
1, 18656, Note_on_c, 0, 71, 64
1, 18688, Note_off_c, 0, 90, 64
1, 18688, Note_off_c, 0, 71, 64
1, 18688, Note_off_c, 0, 78, 64
1, 18688, Note_off_c, 0, 66, 64
1, 18688, Note_on_c, 0, 78, 64
1, 18688, Note_on_c, 0, 71, 64
1, 18688, Note_on_c, 0, 66, 64
1, 18816, Note_off_c, 0, 78, 64
1, 18816, Note_off_c, 0, 71, 64
1, 18816, Note_off_c, 0, 66, 64
1, 18816, Note_on_c, 0, 78, 64
1, 18816, Note_on_c, 0, 71, 64
1, 18816, Note_on_c, 0, 66, 64
1, 18880, Note_off_c, 0, 78, 64
1, 18880, Note_off_c, 0, 71, 64
1, 18880, Note_off_c, 0, 66, 64
1, 18944, Note_on_c, 0, 81, 64
1, 18976, Note_off_c, 0, 81, 64
1, 18976, Note_on_c, 0, 80, 64
1, 19008, Note_off_c, 0, 80, 64
1, 19008, Note_on_c, 0, 81, 64
1, 19040, Note_off_c, 0, 81, 64
1, 19040, Note_on_c, 0, 83, 64
1, 19072, Note_off_c, 0, 83, 64
1, 19072, Note_on_c, 0, 84, 64
1, 19072, Note_on_c, 0, 72, 64
1, 19072, Note_on_c, 0, 67, 64
1, 19072, Note_on_c, 0, 60, 64
1, 19168, Note_off_c, 0, 72, 64
1, 19168, Note_off_c, 0, 67, 64
1, 19168, Note_off_c, 0, 60, 64
1, 19168, Note_on_c, 0, 60, 64
1, 19168, Note_on_c, 0, 67, 64
1, 19168, Note_on_c, 0, 72, 64
1, 19200, Note_off_c, 0, 67, 64
1, 19200, Note_off_c, 0, 60, 64
1, 19200, Note_off_c, 0, 72, 64
1, 19200, Note_on_c, 0, 72, 64
1, 19200, Note_on_c, 0, 67, 64
1, 19200, Note_on_c, 0, 60, 64
1, 19264, Note_off_c, 0, 84, 64
1, 19328, Note_off_c, 0, 72, 64
1, 19328, Note_off_c, 0, 67, 64
1, 19328, Note_off_c, 0, 60, 64
1, 19328, Note_on_c, 0, 88, 64
1, 19328, Note_on_c, 0, 72, 64
1, 19328, Note_on_c, 0, 67, 64
1, 19328, Note_on_c, 0, 60, 64
1, 19392, Note_off_c, 0, 72, 64
1, 19392, Note_off_c, 0, 67, 64
1, 19392, Note_off_c, 0, 60, 64
1, 19456, Note_off_c, 0, 88, 64
1, 19456, Note_on_c, 0, 79, 64
1, 19488, Note_off_c, 0, 79, 64
1, 19488, Note_on_c, 0, 78, 64
1, 19520, Note_off_c, 0, 78, 64
1, 19520, Note_on_c, 0, 79, 64
1, 19552, Note_off_c, 0, 79, 64
1, 19552, Note_on_c, 0, 81, 64
1, 19584, Note_off_c, 0, 81, 64
1, 19584, Note_on_c, 0, 83, 64
1, 19584, Note_on_c, 0, 71, 64
1, 19584, Note_on_c, 0, 67, 64
1, 19584, Note_on_c, 0, 59, 64
1, 19680, Note_off_c, 0, 71, 64
1, 19680, Note_off_c, 0, 59, 64
1, 19680, Note_off_c, 0, 67, 64
1, 19680, Note_on_c, 0, 59, 64
1, 19680, Note_on_c, 0, 71, 64
1, 19680, Note_on_c, 0, 67, 64
1, 19712, Note_off_c, 0, 71, 64
1, 19712, Note_off_c, 0, 67, 64
1, 19712, Note_off_c, 0, 59, 64
1, 19712, Note_on_c, 0, 71, 64
1, 19712, Note_on_c, 0, 59, 64
1, 19712, Note_on_c, 0, 67, 64
1, 19776, Note_off_c, 0, 83, 64
1, 19840, Note_off_c, 0, 67, 64
1, 19840, Note_off_c, 0, 71, 64
1, 19840, Note_off_c, 0, 59, 64
1, 19840, Note_on_c, 0, 88, 64
1, 19840, Note_on_c, 0, 71, 64
1, 19840, Note_on_c, 0, 67, 64
1, 19840, Note_on_c, 0, 59, 64
1, 19904, Note_off_c, 0, 71, 64
1, 19904, Note_off_c, 0, 67, 64
1, 19904, Note_off_c, 0, 59, 64
1, 19968, Note_off_c, 0, 88, 64
1, 19968, Note_on_c, 0, 79, 64
1, 20032, Note_off_c, 0, 79, 64
1, 20032, Note_on_c, 0, 83, 64
1, 20096, Note_off_c, 0, 83, 64
1, 20096, Note_on_c, 0, 66, 64
1, 20096, Note_on_c, 0, 71, 64
1, 20096, Note_on_c, 0, 78, 64
1, 20096, Note_on_c, 0, 90, 64
1, 20160, Note_off_c, 0, 90, 64
1, 20160, Note_on_c, 0, 90, 64
1, 20192, Note_off_c, 0, 78, 64
1, 20192, Note_off_c, 0, 71, 64
1, 20192, Note_off_c, 0, 66, 64
1, 20192, Note_off_c, 0, 90, 64
1, 20192, Note_on_c, 0, 66, 64
1, 20192, Note_on_c, 0, 71, 64
1, 20192, Note_on_c, 0, 78, 64
1, 20192, Note_on_c, 0, 88, 64
1, 20224, Note_off_c, 0, 78, 64
1, 20224, Note_off_c, 0, 71, 64
1, 20224, Note_off_c, 0, 66, 64
1, 20224, Note_off_c, 0, 88, 64
1, 20224, Note_on_c, 0, 87, 64
1, 20224, Note_on_c, 0, 78, 64
1, 20224, Note_on_c, 0, 71, 64
1, 20224, Note_on_c, 0, 66, 64
1, 20352, Note_off_c, 0, 78, 64
1, 20352, Note_off_c, 0, 71, 64
1, 20352, Note_off_c, 0, 66, 64
1, 20352, Note_on_c, 0, 78, 64
1, 20352, Note_on_c, 0, 66, 64
1, 20352, Note_on_c, 0, 71, 64
1, 20416, Note_off_c, 0, 78, 64
1, 20416, Note_off_c, 0, 71, 64
1, 20416, Note_off_c, 0, 66, 64
1, 20480, Note_off_c, 0, 87, 64
1, 20480, Note_on_c, 0, 90, 64
1, 20608, Note_off_c, 0, 90, 64
1, 20608, Note_on_c, 0, 88, 64
1, 20608, Note_on_c, 0, 76, 64
1, 20608, Note_on_c, 0, 71, 64
1, 20608, Note_on_c, 0, 64, 64
1, 20704, Note_off_c, 0, 71, 64
1, 20704, Note_off_c, 0, 76, 64
1, 20704, Note_off_c, 0, 64, 64
1, 20704, Note_on_c, 0, 76, 64
1, 20704, Note_on_c, 0, 64, 64
1, 20704, Note_on_c, 0, 71, 64
1, 20736, Note_off_c, 0, 71, 64
1, 20736, Note_off_c, 0, 64, 64
1, 20736, Note_off_c, 0, 76, 64
1, 20736, Note_on_c, 0, 76, 64
1, 20736, Note_on_c, 0, 71, 64
1, 20736, Note_on_c, 0, 64, 64
1, 20992, Note_off_c, 0, 88, 64
1, 20992, Note_off_c, 0, 76, 64
1, 20992, Note_off_c, 0, 71, 64
1, 20992, Note_off_c, 0, 64, 64
1, 20992, End_track
0, 0, End_of_file
